<svg width="120" height="120" viewBox="0 0 120 120" fill="none"
    xmlns="http://www.w3.org/2000/svg">
    <g id="Frame 13" clip-path="url(#clip0_167_2)">
        <g id="light">
            <path id="Polygon 3" opacity="0.8" d="M36.5 56.066C33.1667 57.9905 33.1667 62.8017 36.5 64.7262L71.5942 84.9879C74.9275 86.9124 79.0942 84.5067 79.0942 80.6577L79.0942 40.1345C79.0942 36.2855 74.9275 33.8799 71.5942 35.8044L36.5 56.066Z" fill="#D1DFF6"/>
            <path id="Polygon 1" opacity="0.8" d="M67.708 56.2564C64.3747 58.1809 64.3747 62.9922 67.708 64.9167L102.802 85.1783C106.136 87.1028 110.302 84.6972 110.302 80.8482L110.302 40.3249C110.302 36.4759 106.136 34.0703 102.802 35.9948L67.708 56.2564Z" fill="#F5C073"/>
        </g>
        <g id="dark">
            <path id="Polygon 2" opacity="0.8" d="M67.708 56.2564C64.3747 58.1809 64.3747 62.9922 67.708 64.9167L102.802 85.1783C106.136 87.1028 110.302 84.6972 110.302 80.8482L110.302 40.3249C110.302 36.4759 106.136 34.0703 102.802 35.9948L67.708 56.2564Z" fill="#012B1C"/>
        </g>
    </g>
    <defs>
        <clipPath id="clip0_167_2">
            <rect width="120" height="120" fill="white" transform="matrix(-1 0 0 1 120 0)"/>
        </clipPath>
    </defs>
</svg>
