<svg width="120" height="120" viewBox="0 0 120 120" fill="none"
    xmlns="http://www.w3.org/2000/svg">
    <g id="Frame 12" clip-path="url(#clip0_153_2)">
        <g id="light">
            <path id="Polygon 3" opacity="0.8" d="M83.5 56.066C86.8333 57.9905 86.8333 62.8017 83.5 64.7262L48.4058 84.9879C45.0725 86.9124 40.9058 84.5067 40.9058 80.6577L40.9058 40.1345C40.9058 36.2855 45.0725 33.8799 48.4058 35.8044L83.5 56.066Z" fill="#D1DFF6"/>
            <path id="Polygon 1" opacity="0.8" d="M52.292 56.2564C55.6253 58.1809 55.6253 62.9922 52.292 64.9167L17.1978 85.1783C13.8645 87.1028 9.69782 84.6972 9.69782 80.8482L9.69782 40.3249C9.69782 36.4759 13.8645 34.0703 17.1978 35.9948L52.292 56.2564Z" fill="#F5C073"/>
        </g>
        <g id="dark">
            <path id="Polygon 2" opacity="0.8" d="M52.292 56.2564C55.6253 58.1809 55.6253 62.9922 52.292 64.9167L17.1978 85.1783C13.8645 87.1028 9.69782 84.6972 9.69782 80.8482L9.69782 40.3249C9.69782 36.4759 13.8645 34.0703 17.1978 35.9948L52.292 56.2564Z" fill="#012B1C"/>
        </g>
    </g>
    <defs>
        <clipPath id="clip0_153_2">
            <rect width="120" height="120" fill="white"/>
        </clipPath>
    </defs>
</svg>
