<svg width="168" height="186" viewBox="0 0 168 186" fill="none" xmlns="http://www.w3.org/2000/svg">
<path d="M164.5 85.2503C164.513 97.3582 162.077 109.316 157.371 120.246C152.665 131.175 145.809 140.8 137.305 148.413L122.745 132.293C122.095 131.572 121.323 131.001 120.473 130.611C119.623 130.221 118.712 130.02 117.792 130.02C116.873 130.02 115.962 130.221 115.112 130.611C114.262 131.001 113.49 131.572 112.84 132.293C101.01 145.39 99.225 149.149 94.08 147.56C61.425 137.602 43.015 115.165 34.58 81.6853C34.2576 80.3658 34.2562 78.9755 34.5758 77.6552C34.8954 76.335 35.5248 75.1318 36.4 74.1678L48.37 60.9153C49.0208 60.1955 49.5371 59.3408 49.8894 58.3999C50.2416 57.4591 50.423 56.4506 50.423 55.4321C50.423 54.4137 50.2416 53.4052 49.8894 52.4644C49.5371 51.5235 49.0208 50.6688 48.37 49.949L33.95 33.984C77.315 -25.2647 164.5 8.75777 164.5 85.2503Z" fill="#6FABE6"/>
<path d="M147 85.2502C147.008 94.8142 145.008 104.249 141.157 112.81C137.306 121.371 131.709 128.824 124.81 134.579L122.745 132.293C122.095 131.572 121.323 131.001 120.473 130.611C119.623 130.22 118.712 130.02 117.792 130.02C116.873 130.02 115.962 130.22 115.112 130.611C114.262 131.001 113.49 131.572 112.84 132.293C101.01 145.39 99.225 149.149 94.08 147.56C61.425 137.601 43.015 115.165 34.58 81.6852C34.2576 80.3658 34.2562 78.9754 34.5758 77.6552C34.8955 76.3349 35.5248 75.1318 36.4 74.1677L48.37 60.9152C49.0208 60.1955 49.5371 59.3407 49.8894 58.3999C50.2417 57.4591 50.423 56.4506 50.423 55.4321C50.423 54.4136 50.2417 53.4051 49.8894 52.4643C49.5371 51.5235 49.0208 50.6687 48.37 49.949L46.305 47.6627C78.645 0.620221 147 25.9627 147 85.2502Z" fill="#DAD7E5"/>
<path d="M164.5 85.2502C164.532 96.0735 162.604 106.794 158.828 116.778C155.053 126.761 149.508 135.806 142.52 143.375C125.965 125.008 124.81 122.411 117.81 122.411C110.81 122.411 108.01 126.906 95.9001 140.198C65.6251 130.82 49.0001 110.554 41.4751 79.7864C53.0251 66.9989 58.2051 63.4339 57.4351 54.4439C57.1201 47.5852 55.1601 46.6939 38.6401 28.2102C84.0001 -23.0561 164.5 11.6252 164.5 85.2502Z" fill="#82BCF4"/>
<path d="M147 85.25C147.014 93.502 145.527 101.673 142.629 109.275C139.73 116.878 135.48 123.757 130.13 129.502L127.68 126.79C125.055 123.891 121.5 122.263 117.793 122.263C114.085 122.263 110.53 123.891 107.905 126.79L95.9 140.081C66.955 131.246 49 110.321 42.315 83.1575C41.125 78.3912 39.585 82.1112 53.445 66.5337C56.0632 63.628 57.5335 59.6912 57.5335 55.5869C57.5335 51.4825 56.0632 47.5457 53.445 44.64L51.03 41.9662C85.75 2.32499 147 29.7987 147 85.25Z" fill="#EDEBF2"/>
<path d="M135.38 173.135C133.484 175.76 131.112 177.917 128.418 179.465C125.723 181.013 122.765 181.92 119.735 182.125C104.707 182.847 89.702 180.192 75.6256 174.32C61.5492 168.448 48.6927 159.481 37.8312 147.959C26.9697 136.437 18.3283 122.6 12.4279 107.28C6.52762 91.9606 3.4906 75.4769 3.50002 58.8227C3.50002 45.919 5.60002 42.7802 11.62 36.1152L41.335 69.014C37.38 73.3927 33.355 76.3765 34.72 81.8402C36.5857 90.3376 39.5193 98.5031 43.435 106.098C53.8644 126.003 70.9509 140.563 91 146.63C98.735 148.994 98.315 148.335 105.63 140.236L135.38 173.135Z" fill="#374F68"/>
<path d="M135.38 173.135C133.744 173.865 131.999 174.247 130.235 174.259C115.216 174.981 100.22 172.329 86.1503 166.464C72.0809 160.6 59.2292 151.643 48.3692 140.133C37.5092 128.624 28.8656 114.8 22.9589 99.494C17.0523 84.1882 14.0048 67.7171 14.0001 51.0728C13.7885 47.3036 14.1313 43.5215 15.0151 39.874L41.3351 69.014C37.3801 73.3928 33.3551 76.3765 34.7201 81.8403C43.3301 116.405 62.3701 137.873 94.2201 147.715C99.0151 149.188 101.22 145.39 105.805 140.392L135.38 173.135Z" fill="#425B72"/>
<path d="M144.55 159.108C144.935 163.719 142.52 165.23 135.38 173.135L105.665 140.236L112.84 132.486C113.49 131.766 114.262 131.194 115.112 130.804C115.962 130.414 116.873 130.213 117.793 130.213C118.712 130.213 119.623 130.414 120.473 130.804C121.323 131.194 122.095 131.766 122.745 132.486C144.305 156.163 144.41 155.388 144.55 159.108Z" fill="#374F68"/>
<path d="M144.55 159.108C143.038 160.755 141.001 161.678 138.88 161.678C136.759 161.678 134.722 160.755 133.21 159.108L110.915 134.424L112.84 132.293C113.49 131.572 114.262 131 115.112 130.61C115.962 130.22 116.873 130.02 117.793 130.02C118.712 130.02 119.623 130.22 120.473 130.61C121.323 131 122.095 131.572 122.745 132.293C144.305 156.163 144.41 155.388 144.55 159.108Z" fill="#425B72"/>
<path d="M50.4701 55.0252C50.9251 59.5589 48.5101 61.0702 41.3351 69.0139L11.6201 36.1152L18.7951 28.1714C19.4452 27.4508 20.2172 26.8792 21.067 26.4892C21.9168 26.0992 22.8277 25.8984 23.7476 25.8984C24.6675 25.8984 25.5784 26.0992 26.4282 26.4892C27.278 26.8792 28.05 27.4508 28.7001 28.1714C50.1901 51.9639 50.3301 51.1889 50.4701 55.0252Z" fill="#374F68"/>
<path d="M50.4701 55.0252C48.9653 56.6582 46.9422 57.5729 44.8351 57.5729C42.728 57.5729 40.7049 56.6582 39.2001 55.0252L16.8701 30.3027L18.7951 28.1714C19.4452 27.4508 20.2172 26.8792 21.067 26.4892C21.9168 26.0992 22.8277 25.8984 23.7476 25.8984C24.6675 25.8984 25.5784 26.0992 26.4282 26.4892C27.278 26.8792 28.05 27.4508 28.7001 28.1714C50.1901 51.9639 50.3301 51.1889 50.4701 55.0252Z" fill="#425B72"/>
<path d="M84 65.875H70C69.0717 65.875 68.1815 66.2833 67.5251 67.01C66.8687 67.7367 66.5 68.7223 66.5 69.75C66.5 70.7777 66.8687 71.7633 67.5251 72.49C68.1815 73.2167 69.0717 73.625 70 73.625H80.5V81.375H70C69.0717 81.375 68.1815 81.7833 67.5251 82.51C66.8687 83.2367 66.5 84.2223 66.5 85.25V100.75C66.5 101.778 66.8687 102.763 67.5251 103.49C68.1815 104.217 69.0717 104.625 70 104.625H84C84.9283 104.625 85.8185 104.217 86.4749 103.49C87.1313 102.763 87.5 101.778 87.5 100.75C87.5 99.7223 87.1313 98.7367 86.4749 98.01C85.8185 97.2833 84.9283 96.875 84 96.875H73.5V89.125H84C84.9283 89.125 85.8185 88.7167 86.4749 87.99C87.1313 87.2633 87.5 86.2777 87.5 85.25V69.75C87.5 68.7223 87.1313 67.7367 86.4749 67.01C85.8185 66.2833 84.9283 65.875 84 65.875Z" fill="#82BCF4"/>
<path d="M108.5 69.75V81.375H101.5V69.75C101.5 68.7223 101.131 67.7367 100.475 67.01C99.8185 66.2833 98.9283 65.875 98 65.875C97.0717 65.875 96.1815 66.2833 95.5251 67.01C94.8687 67.7367 94.5 68.7223 94.5 69.75V85.25C94.5 86.2777 94.8687 87.2633 95.5251 87.99C96.1815 88.7167 97.0717 89.125 98 89.125H108.5V100.75C108.5 101.778 108.869 102.763 109.525 103.49C110.182 104.217 111.072 104.625 112 104.625C112.928 104.625 113.818 104.217 114.475 103.49C115.131 102.763 115.5 101.778 115.5 100.75V69.75C115.5 68.7223 115.131 67.7367 114.475 67.01C113.818 66.2833 112.928 65.875 112 65.875C111.072 65.875 110.182 66.2833 109.525 67.01C108.869 67.7367 108.5 68.7223 108.5 69.75Z" fill="#82BCF4"/>
</svg>
