<svg width="210" height="254" viewBox="0 0 210 254" fill="none" xmlns="http://www.w3.org/2000/svg">
<path d="M195.775 79.6629H83.8537C82.9115 73.5867 78.4847 68.9482 73.1986 68.9482H48.337C43.05 68.9482 38.624 73.5867 37.6811 79.6629H29.174C23.2079 79.6629 18.3262 85.5674 18.3262 92.7836V211.213C18.3262 218.429 23.2079 224.334 29.174 224.334H195.774C201.741 224.334 206.622 218.429 206.622 211.213V92.7836C206.623 85.5674 201.741 79.6629 195.775 79.6629Z" fill="#D49000"/>
<path opacity="0.3" d="M18.3262 100.854V211.212C18.3262 218.428 23.2079 224.333 29.174 224.333H195.774C201.741 224.333 206.622 218.428 206.622 211.212V100.854H18.3262Z" fill="#76531C"/>
<path d="M173.902 29.6689H57.967V179.775H173.902V29.6689Z" fill="#E0E0D3"/>
<path d="M156.543 66.302H75.3212C73.4554 66.302 71.9436 64.4729 71.9436 62.2167C71.9436 59.9604 73.4554 58.1313 75.3212 58.1313H156.543C158.409 58.1313 159.921 59.9604 159.921 62.2167C159.921 64.4729 158.409 66.302 156.543 66.302Z" fill="#5C6670"/>
<path d="M156.543 89.386H131.567C129.702 89.386 128.19 87.5569 128.19 85.3007C128.19 83.0444 129.702 81.2153 131.567 81.2153H156.543C158.409 81.2153 159.921 83.0444 159.921 85.3007C159.921 87.5569 158.409 89.386 156.543 89.386Z" fill="#5C6670"/>
<path d="M119.409 89.386H75.3217C73.4559 89.386 71.9441 87.5569 71.9441 85.3007C71.9441 83.0444 73.4559 81.2153 75.3217 81.2153H119.409C121.275 81.2153 122.787 83.0444 122.787 85.3007C122.786 87.5569 121.274 89.386 119.409 89.386Z" fill="#5C6670"/>
<path d="M191.832 123.027C190.795 115.92 185.064 110.106 179.098 110.106H12.4967C6.53057 110.106 2.49873 115.92 3.53601 123.027L16.44 211.413C17.4781 218.519 23.208 224.334 29.1741 224.334H195.775C201.741 224.334 205.773 218.519 204.735 211.413L191.832 123.027Z" fill="#FFC843"/>
<path d="M195.775 75.578H177.277V29.6664C177.277 27.4102 175.765 25.5811 173.899 25.5811H57.9652C56.0998 25.5811 54.5875 27.4102 54.5875 29.6664V64.8633H48.3371C42.4756 64.8633 37.3187 69.2076 35.1719 75.578H29.1742C21.3303 75.578 14.9491 83.2962 14.9491 92.7835V106.021H12.4972C8.6532 106.021 5.11969 107.936 2.80354 111.275C0.487379 114.615 -0.458443 119.156 0.210113 123.737L13.1141 212.124C14.4262 221.109 21.631 228.419 29.1746 228.419H195.775C203.619 228.419 210 220.701 210 211.213V92.7835C210.001 83.2962 203.619 75.578 195.775 75.578ZM61.3424 33.7512H170.522V106.02H61.3424V33.7512ZM21.704 92.7835C21.704 87.8018 25.055 83.7482 29.1742 83.7482H37.6817C39.3063 83.7482 40.7016 82.3482 41.0011 80.4169C41.6651 76.1391 44.7503 73.0335 48.3375 73.0335H54.5879V106.021H21.704V92.7835ZM200.294 217.913C199.514 219.037 198.422 219.783 197.14 220.09C197.078 220.104 197.015 220.113 196.952 220.125C196.801 220.155 196.65 220.185 196.495 220.204C196.258 220.232 196.018 220.248 195.775 220.248H29.1742C24.8302 220.248 20.5215 215.877 19.7656 210.702L6.86204 122.317C6.53679 120.09 6.933 118.033 7.97849 116.527C9.02275 115.021 10.6277 114.192 12.4972 114.192H179.098C183.442 114.192 187.751 118.563 188.506 123.738L201.41 212.124C201.735 214.35 201.339 216.406 200.294 217.913ZM203.245 177.71L195.158 122.317C193.847 113.331 186.642 106.021 179.098 106.021H177.277V83.7487H195.775C199.894 83.7487 203.245 87.8018 203.245 92.784V177.71Z" fill="#1E252B"/>
</svg>
