<svg width="181" height="173" viewBox="0 0 181 173" fill="none" xmlns="http://www.w3.org/2000/svg">
<path d="M56.5743 72.6284C25.329 72.6284 0 90.7001 0 112.993C0 124.321 6.54748 134.552 17.0801 141.883L6.28936 157.165C5.23011 158.665 6.84495 160.567 8.59829 159.887L34.0485 150.023C40.9532 152.163 48.5662 153.358 56.5759 153.358C87.8212 153.358 113.15 135.286 113.15 112.993C113.147 90.7001 87.818 72.6284 56.5743 72.6284Z" fill="#96CEB4"/>
<path d="M56.5743 72.6284C44.2852 72.6284 32.92 75.4325 23.6433 80.1817C28.2502 106.369 59.549 126.633 97.5008 126.633C101.834 126.633 106.072 126.353 110.201 125.848C112.102 121.809 113.149 117.49 113.149 112.993C113.147 90.7001 87.818 72.6284 56.5743 72.6284Z" fill="#71A58A"/>
<path d="M160.577 102.63C173.226 93.1073 181 80.2556 181 66.1012C181 36.7589 147.661 12.9722 106.537 12.9722C65.4119 12.9722 32.0732 36.7589 32.0732 66.1012C32.0732 95.4435 65.4119 119.23 106.537 119.23C117.911 119.23 128.683 117.404 138.325 114.15L172.938 127.567C175.114 128.41 177.114 126.051 175.801 124.192L160.577 102.63Z" fill="#FFEEAD"/>
<path d="M70.4138 73.4242C74.6453 73.4242 78.0756 70.1455 78.0756 66.101C78.0756 62.0565 74.6453 58.7778 70.4138 58.7778C66.1823 58.7778 62.752 62.0565 62.752 66.101C62.752 70.1455 66.1823 73.4242 70.4138 73.4242Z" fill="#99734A"/>
<path d="M94.4946 73.4242C98.7261 73.4242 102.156 70.1455 102.156 66.101C102.156 62.0565 98.7261 58.7778 94.4946 58.7778C90.2631 58.7778 86.8328 62.0565 86.8328 66.101C86.8328 70.1455 90.2631 73.4242 94.4946 73.4242Z" fill="#99734A"/>
<path d="M118.577 73.4242C122.809 73.4242 126.239 70.1455 126.239 66.101C126.239 62.0565 122.809 58.7778 118.577 58.7778C114.346 58.7778 110.915 62.0565 110.915 66.101C110.915 70.1455 114.346 73.4242 118.577 73.4242Z" fill="#99734A"/>
<path d="M142.659 73.4242C146.891 73.4242 150.321 70.1455 150.321 66.101C150.321 62.0565 146.891 58.7778 142.659 58.7778C138.428 58.7778 134.998 62.0565 134.998 66.101C134.998 70.1455 138.428 73.4242 142.659 73.4242Z" fill="#99734A"/>
</svg>
