<svg width="1903" height="356" viewBox="0 0 1903 356" fill="none" xmlns="http://www.w3.org/2000/svg">
<path d="M1.17505 63.1751C-0.387451 64.7376 -0.387451 67.2751 1.17505 68.8376L25.175 92.8376C26.7375 94.4001 29.275 94.4001 30.8375 92.8376C32.4 91.2751 32.4 88.7376 30.8375 87.1751L9.66255 66.0001L30.8251 44.8251C32.3876 43.2626 32.3876 40.7251 30.8251 39.1626C29.2626 37.6001 26.725 37.6001 25.1625 39.1626L1.16255 63.1626L1.17505 63.1751Z" fill="black"/>
<g clip-path="url(#clip0_130_474)">
<path d="M1900.82 35.8861C1902.38 34.3288 1902.39 31.7913 1900.83 30.2237L1876.91 6.14526C1875.36 4.57765 1872.82 4.56935 1871.25 6.12673C1869.68 7.68411 1869.67 10.2216 1871.23 11.7892L1892.34 33.0334L1871.11 54.139C1869.54 55.6964 1869.53 58.2339 1871.09 59.8015C1872.64 61.3691 1875.18 61.3774 1876.75 59.82L1900.83 35.8987L1900.82 35.8861Z" fill="black"/>
</g>
<circle cx="872" cy="345" r="11" fill="#D9D9D9"/>
<circle cx="994" cy="345" r="11" fill="#D9D9D9"/>
<circle cx="904" cy="345" r="11" fill="#161616" fill-opacity="0.6"/>
<defs>
<clipPath id="clip0_130_474">
<rect width="40" height="64" fill="white" transform="translate(1901.9 65.0649) rotate(-179.812)"/>
</clipPath>
</defs>
</svg>
