<svg width="1709" height="356" viewBox="0 0 1709 356" fill="none" xmlns="http://www.w3.org/2000/svg">
<path d="M1.05583 63.1751C-0.348038 64.7376 -0.348038 67.2751 1.05583 68.8376L22.6193 92.8376C24.0232 94.4001 26.3031 94.4001 27.707 92.8376C29.1108 91.2751 29.1108 88.7376 27.707 87.1751L8.68167 66.0001L27.6957 44.8251C29.0996 43.2626 29.0996 40.7251 27.6957 39.1626C26.2918 37.6001 24.012 37.6001 22.6081 39.1626L1.0446 63.1626L1.05583 63.1751Z" fill="black"/>
<g clip-path="url(#clip0_131_784)">
<path d="M1707.84 35.8861C1709.25 34.3288 1709.26 31.7913 1707.86 30.2237L1686.37 6.14526C1684.97 4.57765 1682.69 4.56935 1681.28 6.12673C1679.87 7.68411 1679.86 10.2216 1681.26 11.7892L1700.22 33.0334L1681.15 54.139C1679.74 55.6964 1679.73 58.2339 1681.13 59.8015C1682.53 61.3691 1684.81 61.3774 1686.22 59.82L1707.85 35.8987L1707.84 35.8861Z" fill="black"/>
</g>
<ellipse cx="772.407" cy="345" rx="9.88326" ry="11" fill="#D9D9D9"/>
<ellipse cx="893.087" cy="345" rx="9.88326" ry="11" fill="#D9D9D9"/>
<ellipse cx="812.225" cy="345" rx="9.88326" ry="11" fill="#161616" fill-opacity="0.6"/>
<defs>
<clipPath id="clip0_131_784">
<rect width="35.9392" height="63.9999" fill="white" transform="matrix(-0.999993 -0.00364236 0.00294035 -0.999996 1708.81 65.0649)"/>
</clipPath>
</defs>
</svg>
