<svg width="100" height="82" viewBox="0 0 100 82" fill="none" xmlns="http://www.w3.org/2000/svg">
<path d="M89.7266 20.6289C89.7852 21.5078 89.7852 22.4063 89.7852 23.2852C89.7852 50.375 69.1602 81.6055 31.4648 81.6055C19.8438 81.6055 9.0625 78.2461 0 72.4062C1.64062 72.6016 3.24219 72.6602 4.94141 72.6602C14.5312 72.6602 23.3398 69.418 30.3906 63.9102C21.3867 63.7148 13.8281 57.8164 11.2305 49.6914C12.5 49.8867 13.7695 50.0039 15.0977 50.0039C16.9336 50.0039 18.7695 49.75 20.4883 49.3008C11.0938 47.4063 4.0625 39.1445 4.0625 29.1836V28.9297C6.79687 30.4531 9.96094 31.4102 13.3203 31.5273C7.79297 27.8555 4.17969 21.5664 4.17969 14.457C4.17969 10.6484 5.19531 7.15234 6.97266 4.10547C17.0703 16.5469 32.2266 24.6719 49.2383 25.5508C48.9258 24.0273 48.7305 22.4453 48.7305 20.8633C48.7305 9.57422 57.8711 0.375 69.2187 0.375C75.1172 0.375 80.4492 2.85547 84.1992 6.83984C88.8281 5.96094 93.2813 4.24219 97.207 1.89844C95.6836 6.66406 92.4414 10.6484 88.2031 13.1875C92.3242 12.7383 96.3281 11.6055 100 10.0234C97.207 14.0859 93.7109 17.6992 89.7266 20.6289Z" fill="#666060"/>
</svg>
