<svg width="75" height="56" viewBox="0 0 75 56" fill="none" xmlns="http://www.w3.org/2000/svg">
<path d="M75 28C75 12.5344 58.2129 0 37.5 0C16.7871 0 0 12.5344 0 28C0 41.125 12.1143 52.15 28.4473 55.1797V36.5531H20.7129V28H28.4473V24.3141C28.4473 14.7875 34.2188 10.3688 46.7578 10.3688C49.1309 10.3688 53.2324 10.7188 54.917 11.0687V18.8125C54.0381 18.7469 52.5 18.7031 50.5811 18.7031C44.4287 18.7031 42.0557 20.4422 42.0557 24.9594V28H54.3018L52.1924 36.5531H42.041V55.7922C60.6152 54.1188 75 42.3172 75 28Z" fill="#666060"/>
</svg>
