<svg width="90" height="90" viewBox="0 0 90 90" fill="none" xmlns="http://www.w3.org/2000/svg">
<path d="M90 45C90 20.1445 69.8555 0 45 0C20.1445 0 0 20.1445 0 45C0 66.0938 14.5371 83.8125 34.1367 88.6816V58.7461H24.8555V45H34.1367V39.0762C34.1367 23.7656 41.0625 16.6641 56.1094 16.6641C58.957 16.6641 63.8789 17.2266 65.9004 17.7891V30.2344C64.8457 30.1289 63 30.0586 60.6973 30.0586C53.3145 30.0586 50.4668 32.8535 50.4668 40.1133V45H65.1621L62.6309 58.7461H50.4492V89.666C72.7383 86.9766 90 68.0098 90 45Z" fill="#666060"/>
</svg>
