<svg width="78" height="48" viewBox="0 0 78 48" fill="none" xmlns="http://www.w3.org/2000/svg">
<path d="M76.2558 8.02773C75.3589 5.15781 72.7253 2.90547 69.3798 2.14258C63.3152 0.75 38.9999 0.75 38.9999 0.75C38.9999 0.75 14.6846 0.75 8.62005 2.14258C5.27457 2.90547 2.64089 5.15781 1.74401 8.02773C0.121094 13.2227 0.121094 24.0484 0.121094 24.0484C0.121094 24.0484 0.121094 34.8742 1.74401 40.0691C2.64089 42.9391 5.27457 45.0945 8.62005 45.8574C14.6846 47.25 38.9999 47.25 38.9999 47.25C38.9999 47.25 63.3152 47.25 69.3798 45.8574C72.7253 45.0945 75.3589 42.927 76.2558 40.0691C77.8787 34.8742 77.8787 24.0484 77.8787 24.0484C77.8787 24.0484 77.8787 13.2227 76.2558 8.02773ZM31.0562 33.8813V14.2156L51.3711 24.0484L31.0562 33.8813Z" fill="#666060"/>
</svg>
