<svg width="96" height="76" viewBox="0 0 96 76" fill="none" xmlns="http://www.w3.org/2000/svg">
<path d="M93.434 12.2383C92.3403 7.60937 89.1285 3.97656 85.0486 2.74609C77.6528 0.5 48 0.5 48 0.5C48 0.5 18.3472 0.5 10.9514 2.74609C6.87151 3.97656 3.65971 7.60937 2.56596 12.2383C0.586792 20.6172 0.586792 38.0781 0.586792 38.0781C0.586792 38.0781 0.586792 55.5391 2.56596 63.918C3.65971 68.5469 6.87151 72.0234 10.9514 73.2539C18.3472 75.5 48 75.5 48 75.5C48 75.5 77.6528 75.5 85.0486 73.2539C89.1285 72.0234 92.3403 68.5273 93.434 63.918C95.4132 55.5391 95.4132 38.0781 95.4132 38.0781C95.4132 38.0781 95.4132 20.6172 93.434 12.2383ZM38.3125 53.9375V22.2187L63.0868 38.0781L38.3125 53.9375Z" fill="#666060"/>
</svg>
