<svg width="95" height="76" viewBox="0 0 95 76" fill="none" xmlns="http://www.w3.org/2000/svg">
<path d="M92.8472 12.4299C91.7535 7.80103 88.5417 4.16821 84.4618 2.93774C77.066 0.69165 47.4132 0.69165 47.4132 0.69165C47.4132 0.69165 17.7604 0.69165 10.3646 2.93774C6.28472 4.16821 3.07292 7.80103 1.97917 12.4299C0 20.8088 0 38.2698 0 38.2698C0 38.2698 0 55.7307 1.97917 64.1096C3.07292 68.7385 6.28472 72.2151 10.3646 73.4456C17.7604 75.6917 47.4132 75.6917 47.4132 75.6917C47.4132 75.6917 77.066 75.6917 84.4618 73.4456C88.5417 72.2151 91.7535 68.719 92.8472 64.1096C94.8264 55.7307 94.8264 38.2698 94.8264 38.2698C94.8264 38.2698 94.8264 20.8088 92.8472 12.4299ZM37.7257 54.1292V22.4104L62.5 38.2698L37.7257 54.1292Z" fill="#666060"/>
</svg>
