<svg width="76" height="49" viewBox="0 0 76 49" fill="none" xmlns="http://www.w3.org/2000/svg">
<path d="M38.0167 12.1465C27.5113 12.1465 19.0377 17.6572 19.0377 24.4893C19.0377 31.3213 27.5113 36.832 38.0167 36.832C48.5221 36.832 56.9957 31.3213 56.9957 24.4893C56.9957 17.6572 48.5221 12.1465 38.0167 12.1465ZM38.0167 32.5137C31.2279 32.5137 25.6779 28.915 25.6779 24.4893C25.6779 20.0635 31.2113 16.4648 38.0167 16.4648C44.8221 16.4648 50.3555 20.0635 50.3555 24.4893C50.3555 28.915 44.8055 32.5137 38.0167 32.5137ZM62.1988 11.6416C62.1988 13.2422 60.2167 14.5205 57.7721 14.5205C55.3109 14.5205 53.3453 13.2314 53.3453 11.6416C53.3453 10.0518 55.3274 8.76269 57.7721 8.76269C60.2167 8.76269 62.1988 10.0518 62.1988 11.6416ZM74.7689 14.5635C74.4881 10.707 73.1337 7.29102 68.7895 4.47656C64.4618 1.66211 59.2091 0.78125 53.2792 0.587891C47.1676 0.362305 28.8493 0.362305 22.7377 0.587891C16.8243 0.770508 11.5716 1.65137 7.22741 4.46582C2.88322 7.28027 1.54527 10.6963 1.24795 14.5527C0.901074 18.5273 0.901074 30.4404 1.24795 34.415C1.52875 38.2715 2.88322 41.6875 7.22741 44.5019C11.5716 47.3164 16.8078 48.1973 22.7377 48.3906C28.8493 48.6162 47.1676 48.6162 53.2792 48.3906C59.2091 48.208 64.4618 47.3271 68.7895 44.5019C73.1171 41.6875 74.4716 38.2715 74.7689 34.415C75.1158 30.4404 75.1158 18.5381 74.7689 14.5635ZM66.8734 38.6797C65.585 40.7852 63.0908 42.4072 59.8368 43.2559C54.964 44.5127 43.4015 44.2227 38.0167 44.2227C32.6319 44.2227 21.0529 44.5019 16.1966 43.2559C12.9591 42.418 10.4649 40.7959 9.16 38.6797C7.22741 35.5107 7.6734 27.9912 7.6734 24.4893C7.6734 20.9873 7.24393 13.457 9.16 10.2988C10.4484 8.19336 12.9426 6.57129 16.1966 5.72266C21.0694 4.46582 32.6319 4.75586 38.0167 4.75586C43.4015 4.75586 54.9805 4.47656 59.8368 5.72266C63.0743 6.56055 65.5685 8.18262 66.8734 10.2988C68.806 13.4678 68.36 20.9873 68.36 24.4893C68.36 27.9912 68.806 35.5215 66.8734 38.6797Z" fill="#666060"/>
</svg>
