<svg width="81" height="52" viewBox="0 0 81 52" fill="none" xmlns="http://www.w3.org/2000/svg">
<path d="M72.6785 13.3699C72.726 13.9148 72.726 14.4719 72.726 15.0168C72.726 31.8125 56.0197 51.1754 25.4865 51.1754C16.0734 51.1754 7.34063 49.0926 0 45.4719C1.32891 45.593 2.62617 45.6293 4.00254 45.6293C11.7703 45.6293 18.9053 43.6191 24.6164 40.2043C17.3232 40.0832 11.2008 36.4262 9.09668 31.3887C10.125 31.5098 11.1533 31.5824 12.2291 31.5824C13.7162 31.5824 15.2033 31.425 16.5955 31.1465C8.98594 29.9719 3.29062 24.8496 3.29062 18.6738V18.5164C5.50547 19.4609 8.06836 20.0543 10.7895 20.127C6.3123 17.8504 3.38555 13.9512 3.38555 9.54336C3.38555 7.18203 4.2082 5.01445 5.64785 3.12539C13.827 10.8391 26.1035 15.8766 39.883 16.4215C39.6299 15.477 39.4717 14.4961 39.4717 13.5152C39.4717 6.51601 46.8756 0.8125 56.0672 0.8125C60.8449 0.8125 65.1639 2.35039 68.2014 4.8207C71.9508 4.27578 75.5578 3.21016 78.7377 1.75703C77.5037 4.71172 74.8775 7.18203 71.4445 8.75625C74.7826 8.47773 78.0258 7.77539 81 6.79453C78.7377 9.31328 75.9059 11.5535 72.6785 13.3699Z" fill="#666060"/>
</svg>
