<svg width="92" height="80" viewBox="0 0 92 80" fill="none" xmlns="http://www.w3.org/2000/svg">
<path d="M46.02 19.7852C33.2432 19.7852 22.9374 28.8027 22.9374 39.9824C22.9374 51.1621 33.2432 60.1797 46.02 60.1797C58.7968 60.1797 69.1026 51.1621 69.1026 39.9824C69.1026 28.8027 58.7968 19.7852 46.02 19.7852ZM46.02 53.1133C37.7633 53.1133 31.0133 47.2246 31.0133 39.9824C31.0133 32.7402 37.7432 26.8516 46.02 26.8516C54.2968 26.8516 61.0267 32.7402 61.0267 39.9824C61.0267 47.2246 54.2767 53.1133 46.02 53.1133ZM75.4307 18.959C75.4307 21.5781 73.02 23.6699 70.0468 23.6699C67.0535 23.6699 64.6629 21.5605 64.6629 18.959C64.6629 16.3574 67.0736 14.248 70.0468 14.248C73.02 14.248 75.4307 16.3574 75.4307 18.959ZM90.7187 23.7402C90.3772 17.4297 88.7299 11.8398 83.4464 7.23437C78.183 2.62891 71.7946 1.1875 64.5825 0.871094C57.1495 0.501953 34.8705 0.501953 27.4374 0.871094C20.2455 1.16992 13.8571 2.61133 8.57359 7.2168C3.29011 11.8223 1.66288 17.4121 1.30127 23.7227C0.879395 30.2266 0.879395 49.7207 1.30127 56.2246C1.64279 62.5351 3.29011 68.125 8.57359 72.7305C13.8571 77.3359 20.2254 78.7773 27.4374 79.0937C34.8705 79.4629 57.1495 79.4629 64.5825 79.0937C71.7946 78.7949 78.183 77.3535 83.4464 72.7305C88.7098 68.125 90.3571 62.5351 90.7187 56.2246C91.1406 49.7207 91.1406 30.2441 90.7187 23.7402ZM81.116 63.2031C79.549 66.6484 76.5156 69.3027 72.558 70.6914C66.6316 72.748 52.5691 72.2734 46.02 72.2734C39.4709 72.2734 25.3883 72.7305 19.4821 70.6914C15.5446 69.3203 12.5111 66.666 10.924 63.2031C8.57359 58.0176 9.116 45.7129 9.116 39.9824C9.116 34.252 8.59368 21.9297 10.924 16.7617C12.491 13.3164 15.5245 10.6621 19.4821 9.27344C25.4084 7.2168 39.4709 7.6914 46.02 7.6914C52.5691 7.6914 66.6517 7.23437 72.558 9.27344C76.4955 10.6445 79.529 13.2988 81.116 16.7617C83.4665 21.9473 82.924 34.252 82.924 39.9824C82.924 45.7129 83.4665 58.0351 81.116 63.2031Z" fill="#666060"/>
</svg>
